<svg width="1087" height="297" viewBox="0 0 1087 297" fill="none" xmlns="http://www.w3.org/2000/svg">
<g clip-path="url(#clip0_677_2168)">
<g clip-path="url(#clip1_677_2168)">
<path d="M196.13 262.6C196.13 244.559 181.909 229.933 164.369 229.933H85.6692C74.2847 229.933 65.0557 220.44 65.0557 208.731V197.267H152.439C152.439 179.226 138.218 164.6 120.678 164.6H33.2798V229.933C33.2798 247.974 47.4998 262.6 65.0407 262.6H196.13Z" fill="#E6AF2E"/>
<path d="M196.13 43.7333C196.13 61.7744 181.909 76.4003 164.369 76.4003H85.6692C74.2847 76.4003 65.0554 85.8926 65.0554 97.6022V109.067H152.438C152.438 127.109 138.218 141.733 120.677 141.733H33.2798V76.4003C33.2798 58.3588 47.4995 43.7333 65.0404 43.7333H196.13Z" fill="#3D348B"/>
<path d="M292.407 155.845C284.417 155.845 277.382 154.277 271.301 151.141C265.308 148.005 260.661 143.737 257.361 138.336C254.062 132.848 252.411 126.619 252.411 119.651C252.411 112.595 254.016 106.366 257.231 100.965C260.53 95.4773 265.005 91.2088 270.65 88.16C276.294 85.024 282.678 83.456 289.801 83.456C296.663 83.456 302.829 84.9368 308.301 87.8987C313.86 90.7733 318.244 94.9547 321.459 100.443C324.674 105.843 326.279 112.333 326.279 119.912C326.279 120.696 326.237 121.611 326.149 122.656C326.061 123.614 325.976 124.529 325.888 125.4H268.956V113.509H315.206L307.389 117.037C307.389 113.379 306.649 110.199 305.174 107.499C303.699 104.798 301.656 102.707 299.051 101.227C296.445 99.6587 293.406 98.8747 289.931 98.8747C286.456 98.8747 283.375 99.6587 280.681 101.227C278.076 102.707 276.034 104.842 274.558 107.629C273.083 110.33 272.343 113.553 272.343 117.299V120.435C272.343 124.267 273.168 127.665 274.819 130.627C276.555 133.501 278.945 135.723 281.984 137.291C285.111 138.771 288.759 139.512 292.928 139.512C296.663 139.512 299.92 138.946 302.699 137.813C305.565 136.681 308.17 134.982 310.515 132.717L321.329 144.477C318.114 148.136 314.075 150.967 309.213 152.971C304.35 154.887 298.748 155.845 292.407 155.845ZM382.41 83.456C387.97 83.456 392.921 84.5886 397.262 86.8533C401.692 89.0312 405.167 92.4286 407.685 97.0453C410.206 101.575 411.463 107.411 411.463 114.555V154.8H391.139V117.691C391.139 112.029 389.882 107.847 387.361 105.147C384.931 102.446 381.456 101.096 376.939 101.096C373.727 101.096 370.816 101.793 368.21 103.187C365.692 104.493 363.696 106.541 362.217 109.328C360.83 112.115 360.133 115.687 360.133 120.043V154.8H339.809V84.5013H359.221V103.971L355.573 98.0907C358.094 93.3867 361.696 89.7714 366.386 87.2453C371.076 84.7192 376.418 83.456 382.41 83.456ZM471.317 155.845C465.408 155.845 460.243 154.539 455.813 151.925C451.384 149.312 447.909 145.349 445.391 140.035C442.958 134.634 441.743 127.839 441.743 119.651C441.743 111.375 442.916 104.581 445.261 99.2667C447.606 93.9528 450.993 89.9893 455.423 87.376C459.852 84.7627 465.148 83.456 471.317 83.456C477.915 83.456 483.824 84.9806 489.035 88.0293C494.331 90.9912 498.5 95.1726 501.542 100.573C504.668 105.974 506.232 112.333 506.232 119.651C506.232 127.055 504.668 133.458 501.542 138.859C498.5 144.259 494.331 148.441 489.035 151.403C483.824 154.365 477.915 155.845 471.317 155.845ZM429.888 180.149V84.5013H449.299V98.8747L448.909 119.781L450.211 140.557V180.149H429.888ZM467.799 139.12C471.186 139.12 474.183 138.336 476.788 136.768C479.479 135.2 481.609 132.979 483.172 130.104C484.82 127.142 485.648 123.658 485.648 119.651C485.648 115.557 484.82 112.072 483.172 109.197C481.609 106.323 479.479 104.101 476.788 102.533C474.183 100.965 471.186 100.181 467.799 100.181C464.412 100.181 461.37 100.965 458.68 102.533C455.986 104.101 453.859 106.323 452.296 109.197C450.732 112.072 449.951 115.557 449.951 119.651C449.951 123.658 450.732 127.142 452.296 130.104C453.859 132.979 455.986 135.2 458.68 136.768C461.37 138.336 464.412 139.12 467.799 139.12ZM519.836 154.8V84.5013H540.16V154.8H519.836ZM529.998 74.7013C526.262 74.7013 523.223 73.6126 520.878 71.4347C518.533 69.2568 517.361 66.5566 517.361 63.3333C517.361 60.1101 518.533 57.4099 520.878 55.232C523.223 53.0541 526.262 51.9653 529.998 51.9653C533.731 51.9653 536.773 53.0107 539.118 55.1013C541.463 57.1048 542.635 59.7181 542.635 62.9413C542.635 66.3387 541.463 69.1699 539.118 71.4347C536.857 73.6126 533.818 74.7013 529.998 74.7013ZM559.021 154.8V84.5013H579.345V154.8H559.021ZM569.183 74.7013C565.447 74.7013 562.408 73.6126 560.063 71.4347C557.718 69.2568 556.546 66.5566 556.546 63.3333C556.546 60.1101 557.718 57.4099 560.063 55.232C562.408 53.0541 565.447 51.9653 569.183 51.9653C572.919 51.9653 575.958 53.0107 578.303 55.1013C580.648 57.1048 581.82 59.7181 581.82 62.9413C581.82 66.3387 580.648 69.1699 578.303 71.4347C576.045 73.6126 573.003 74.7013 569.183 74.7013Z" fill="#3D348B"/>
<path d="M658.682 155.845C652.689 155.845 646.914 155.149 641.355 153.755C635.883 152.274 631.541 150.445 628.327 148.267L635.101 133.632C638.316 135.635 642.094 137.291 646.436 138.597C650.865 139.817 655.21 140.427 659.464 140.427C664.154 140.427 667.456 139.861 669.365 138.728C671.365 137.595 672.361 136.027 672.361 134.024C672.361 132.369 671.58 131.149 670.016 130.365C668.541 129.494 666.544 128.841 664.023 128.405C661.506 127.97 658.728 127.534 655.685 127.099C652.735 126.663 649.738 126.097 646.696 125.4C643.657 124.616 640.879 123.483 638.358 122.003C635.841 120.522 633.798 118.518 632.235 115.992C630.76 113.466 630.02 110.199 630.02 106.192C630.02 101.749 631.281 97.8293 633.798 94.432C636.404 91.0347 640.14 88.3779 645.002 86.4613C649.868 84.4579 655.685 83.456 662.46 83.456C667.238 83.456 672.101 83.9787 677.051 85.024C682.002 86.0693 686.129 87.5939 689.428 89.5973L682.653 104.101C679.266 102.098 675.836 100.747 672.361 100.051C668.974 99.2667 665.675 98.8747 662.46 98.8747C657.946 98.8747 654.643 99.4845 652.559 100.704C650.474 101.923 649.432 103.491 649.432 105.408C649.432 107.15 650.171 108.457 651.647 109.328C653.21 110.199 655.252 110.896 657.77 111.419C660.291 111.941 663.027 112.421 665.978 112.856C669.02 113.205 672.058 113.771 675.097 114.555C678.139 115.339 680.875 116.471 683.305 117.952C685.826 119.346 687.865 121.306 689.428 123.832C690.991 126.271 691.773 129.494 691.773 133.501C691.773 137.857 690.47 141.733 687.865 145.131C685.259 148.441 681.481 151.054 676.53 152.971C671.668 154.887 665.717 155.845 658.682 155.845ZM732.974 155.845C724.724 155.845 718.298 153.755 713.693 149.573C709.09 145.305 706.788 138.989 706.788 130.627V68.952H727.111V130.365C727.111 133.327 727.893 135.635 729.456 137.291C731.02 138.859 733.15 139.643 735.84 139.643C739.055 139.643 741.791 138.771 744.048 137.029L749.52 151.403C747.435 152.883 744.917 154.016 741.963 154.8C739.097 155.497 736.101 155.845 732.974 155.845ZM695.975 101.749V86.0693H744.569V101.749H695.975ZM790.502 155.845C784.685 155.845 779.474 154.713 774.869 152.448C770.355 150.183 766.837 146.742 764.316 142.125C761.798 137.421 760.538 131.454 760.538 124.224V84.5013H780.862V121.219C780.862 127.055 782.08 131.367 784.509 134.155C787.03 136.855 790.548 138.205 795.062 138.205C798.189 138.205 800.97 137.552 803.4 136.245C805.833 134.851 807.745 132.761 809.132 129.973C810.523 127.099 811.217 123.527 811.217 119.259V84.5013H831.541V154.8H812.259V135.461L815.777 141.08C813.432 145.958 809.96 149.661 805.354 152.187C800.84 154.626 795.889 155.845 790.502 155.845ZM880.464 155.845C873.865 155.845 867.915 154.365 862.615 151.403C857.32 148.354 853.105 144.129 849.978 138.728C846.94 133.327 845.419 126.968 845.419 119.651C845.419 112.246 846.94 105.843 849.978 100.443C853.105 95.0419 857.32 90.8606 862.615 87.8987C867.915 84.9368 873.865 83.456 880.464 83.456C886.372 83.456 891.538 84.7627 895.967 87.376C900.397 89.9893 903.83 93.9528 906.259 99.2667C908.692 104.581 909.907 111.375 909.907 119.651C909.907 127.839 908.735 134.634 906.39 140.035C904.045 145.349 900.657 149.312 896.228 151.925C891.886 154.539 886.633 155.845 880.464 155.845ZM883.981 139.12C887.284 139.12 890.28 138.336 892.971 136.768C895.664 135.2 897.791 132.979 899.354 130.104C901.006 127.142 901.83 123.658 901.83 119.651C901.83 115.557 901.006 112.072 899.354 109.197C897.791 106.323 895.664 104.101 892.971 102.533C890.28 100.965 887.284 100.181 883.981 100.181C880.594 100.181 877.555 100.965 874.862 102.533C872.172 104.101 869.999 106.323 868.348 109.197C866.784 112.072 866.003 115.557 866.003 119.651C866.003 123.658 866.784 127.142 868.348 130.104C869.999 132.979 872.172 135.2 874.862 136.768C877.555 138.336 880.594 139.12 883.981 139.12ZM902.351 154.8V140.427L902.742 119.52L901.439 98.744V57.8453H921.763V154.8H902.351ZM940.575 154.8V84.5013H960.899V154.8H940.575ZM950.737 74.7013C947.001 74.7013 943.962 73.6125 941.617 71.4347C939.272 69.2568 938.1 66.5566 938.1 63.3333C938.1 60.1101 939.272 57.4099 941.617 55.232C943.962 53.0541 947.001 51.9653 950.737 51.9653C954.469 51.9653 957.511 53.0107 959.856 55.1013C962.202 57.1048 963.374 59.7181 963.374 62.9413C963.374 66.3387 962.202 69.1699 959.856 71.4347C957.596 73.6125 954.557 74.7013 950.737 74.7013ZM1013.11 155.845C1005.64 155.845 998.996 154.277 993.179 151.141C987.446 148.005 982.887 143.737 979.499 138.336C976.197 132.848 974.549 126.619 974.549 119.651C974.549 112.595 976.197 106.366 979.499 100.965C982.887 95.4773 987.446 91.2088 993.179 88.16C998.996 85.024 1005.64 83.456 1013.11 83.456C1020.49 83.456 1027.09 85.024 1032.91 88.16C1038.73 91.2088 1043.29 95.4339 1046.59 100.835C1049.89 106.235 1051.54 112.507 1051.54 119.651C1051.54 126.619 1049.89 132.848 1046.59 138.336C1043.29 143.737 1038.73 148.005 1032.91 151.141C1027.09 154.277 1020.49 155.845 1013.11 155.845ZM1013.11 139.12C1016.5 139.12 1019.54 138.336 1022.23 136.768C1024.92 135.2 1027.05 132.979 1028.61 130.104C1030.18 127.142 1030.96 123.658 1030.96 119.651C1030.96 115.557 1030.18 112.072 1028.61 109.197C1027.05 106.323 1024.92 104.101 1022.23 102.533C1019.54 100.965 1016.5 100.181 1013.11 100.181C1009.72 100.181 1006.68 100.965 1003.99 102.533C1001.3 104.101 999.126 106.323 997.478 109.197C995.915 112.072 995.133 115.557 995.133 119.651C995.133 123.658 995.915 127.142 997.478 130.104C999.126 132.979 1001.3 135.2 1003.99 136.768C1006.68 138.336 1009.72 139.12 1013.11 139.12Z" fill="#E6AF2E"/>
<path opacity="0.5" d="M254.183 239.733V203.147H269.035C272.927 203.147 276.33 203.931 279.248 205.499C282.203 207.032 284.496 209.175 286.127 211.927C287.759 214.68 288.577 217.851 288.577 221.44C288.577 225.029 287.759 228.2 286.127 230.952C284.496 233.705 282.203 235.866 279.248 237.434C276.33 238.967 272.927 239.733 269.035 239.733H254.183ZM258.039 236.388H268.826C272.057 236.388 274.855 235.761 277.216 234.507C279.613 233.217 281.473 231.458 282.792 229.228C284.111 226.963 284.772 224.367 284.772 221.44C284.772 218.478 284.111 215.882 282.792 213.652C281.473 211.422 279.613 209.68 277.216 208.426C274.855 207.136 272.057 206.492 268.826 206.492H258.039V236.388ZM296.455 239.733V212.293H300.155V239.733H296.455ZM298.331 206.23C297.566 206.23 296.924 205.969 296.403 205.446C295.882 204.924 295.621 204.296 295.621 203.565C295.621 202.833 295.882 202.223 296.403 201.735C296.924 201.213 297.566 200.951 298.331 200.951C299.093 200.951 299.738 201.195 300.259 201.683C300.78 202.171 301.041 202.781 301.041 203.512C301.041 204.279 300.78 204.924 300.259 205.446C299.771 205.969 299.129 206.23 298.331 206.23ZM317.798 239.995C315.538 239.995 313.401 239.681 311.389 239.054C309.372 238.392 307.793 237.573 306.646 236.597L308.314 233.67C309.425 234.507 310.848 235.238 312.587 235.866C314.323 236.458 316.147 236.754 318.059 236.754C320.664 236.754 322.54 236.353 323.687 235.552C324.833 234.716 325.407 233.618 325.407 232.259C325.407 231.249 325.074 230.465 324.417 229.907C323.791 229.315 322.957 228.879 321.915 228.6C320.873 228.287 319.707 228.026 318.424 227.816C317.137 227.607 315.851 227.363 314.567 227.085C313.317 226.806 312.17 226.405 311.128 225.883C310.086 225.325 309.232 224.576 308.574 223.635C307.949 222.694 307.636 221.44 307.636 219.872C307.636 218.374 308.053 217.032 308.887 215.847C309.721 214.663 310.936 213.739 312.535 213.077C314.167 212.38 316.147 212.032 318.476 212.032C320.248 212.032 322.019 212.276 323.791 212.764C325.563 213.217 327.022 213.826 328.169 214.593L326.553 217.572C325.335 216.736 324.032 216.144 322.645 215.795C321.254 215.412 319.863 215.22 318.476 215.22C316.007 215.22 314.183 215.656 313.004 216.527C311.858 217.363 311.284 218.443 311.284 219.767C311.284 220.813 311.597 221.632 312.222 222.224C312.88 222.816 313.734 223.287 314.776 223.635C315.851 223.949 317.017 224.21 318.267 224.419C319.551 224.628 320.821 224.89 322.071 225.203C323.355 225.482 324.521 225.883 325.563 226.405C326.638 226.893 327.491 227.607 328.116 228.548C328.774 229.454 329.107 230.656 329.107 232.155C329.107 233.758 328.654 235.151 327.752 236.336C326.882 237.486 325.596 238.392 323.895 239.054C322.228 239.681 320.195 239.995 317.798 239.995ZM347.255 239.995C344.545 239.995 342.112 239.402 339.959 238.218C337.839 236.998 336.171 235.343 334.956 233.252C333.741 231.127 333.132 228.705 333.132 225.987C333.132 223.234 333.741 220.813 334.956 218.722C336.171 216.631 337.839 214.994 339.959 213.809C342.112 212.624 344.545 212.032 347.255 212.032C349.583 212.032 351.684 212.485 353.56 213.391C355.436 214.297 356.912 215.656 357.99 217.468L355.228 219.349C354.29 217.955 353.127 216.928 351.736 216.266C350.345 215.603 348.834 215.272 347.202 215.272C345.258 215.272 343.503 215.726 341.939 216.631C340.376 217.503 339.141 218.739 338.239 220.342C337.337 221.945 336.884 223.827 336.884 225.987C336.884 228.147 337.337 230.029 338.239 231.632C339.141 233.235 340.376 234.489 341.939 235.395C343.503 236.266 345.258 236.702 347.202 236.702C348.834 236.702 350.345 236.371 351.736 235.709C353.127 235.047 354.29 234.036 355.228 232.677L357.99 234.559C356.912 236.336 355.436 237.695 353.56 238.636C351.684 239.542 349.583 239.995 347.255 239.995ZM375.952 239.995C373.311 239.995 370.933 239.402 368.813 238.218C366.728 236.998 365.077 235.343 363.862 233.252C362.647 231.127 362.038 228.705 362.038 225.987C362.038 223.234 362.647 220.813 363.862 218.722C365.077 216.631 366.728 214.994 368.813 213.809C370.897 212.624 373.278 212.032 375.952 212.032C378.662 212.032 381.059 212.624 383.143 213.809C385.264 214.994 386.912 216.631 388.094 218.722C389.309 220.813 389.918 223.234 389.918 225.987C389.918 228.705 389.309 231.127 388.094 233.252C386.912 235.343 385.264 236.998 383.143 238.218C381.023 239.402 378.626 239.995 375.952 239.995ZM375.952 236.702C377.932 236.702 379.688 236.266 381.215 235.395C382.743 234.489 383.941 233.235 384.811 231.632C385.713 229.994 386.166 228.113 386.166 225.987C386.166 223.827 385.713 221.945 384.811 220.342C383.941 218.739 382.743 217.503 381.215 216.631C379.688 215.726 377.949 215.272 376.004 215.272C374.06 215.272 372.32 215.726 370.793 216.631C369.265 217.503 368.047 218.739 367.145 220.342C366.243 221.945 365.79 223.827 365.79 225.987C365.79 228.113 366.243 229.994 367.145 231.632C368.047 233.235 369.265 234.489 370.793 235.395C372.32 236.266 374.04 236.702 375.952 236.702ZM403.744 239.733L391.602 212.293H395.458L406.61 237.747H404.786L416.094 212.293H419.742L407.548 239.733H403.744ZM435.812 239.995C432.962 239.995 430.461 239.402 428.308 238.218C426.152 236.998 424.468 235.343 423.253 233.252C422.035 231.127 421.429 228.705 421.429 225.987C421.429 223.269 422.003 220.865 423.149 218.774C424.328 216.684 425.927 215.046 427.943 213.861C429.992 212.642 432.285 212.032 434.822 212.032C437.392 212.032 439.669 212.624 441.649 213.809C443.662 214.959 445.245 216.596 446.391 218.722C447.538 220.813 448.111 223.234 448.111 225.987C448.111 226.161 448.091 226.353 448.059 226.562C448.059 226.736 448.059 226.928 448.059 227.137H424.243V224.367H446.078L444.619 225.464C444.619 223.478 444.183 221.719 443.316 220.186C442.483 218.618 441.336 217.398 439.877 216.527C438.418 215.656 436.731 215.22 434.822 215.22C432.946 215.22 431.259 215.656 429.767 216.527C428.272 217.398 427.11 218.618 426.276 220.186C425.442 221.754 425.025 223.548 425.025 225.569V226.144C425.025 228.235 425.475 230.081 426.38 231.684C427.318 233.252 428.601 234.489 430.236 235.395C431.904 236.266 433.796 236.702 435.917 236.702C437.584 236.702 439.128 236.406 440.555 235.813C442.014 235.221 443.264 234.315 444.307 233.095L446.391 235.5C445.173 236.963 443.645 238.078 441.805 238.845C439.998 239.611 438.001 239.995 435.812 239.995ZM455.641 239.733V212.293H459.185V219.767L458.82 218.461C459.582 216.37 460.868 214.785 462.676 213.704C464.48 212.59 466.721 212.032 469.398 212.032V215.638C469.258 215.638 469.118 215.638 468.982 215.638C468.842 215.603 468.702 215.586 468.565 215.586C465.679 215.586 463.422 216.475 461.79 218.252C460.155 219.994 459.341 222.485 459.341 225.726V239.733H455.641ZM473.805 247.364L476.098 237.695L476.515 239.942C475.717 239.942 475.04 239.681 474.483 239.158C473.962 238.636 473.701 237.956 473.701 237.12C473.701 236.284 473.962 235.604 474.483 235.082C475.04 234.559 475.701 234.298 476.463 234.298C477.264 234.298 477.906 234.576 478.391 235.134C478.912 235.691 479.173 236.353 479.173 237.12C479.173 237.399 479.156 237.678 479.121 237.956C479.088 238.235 479.016 238.548 478.912 238.897C478.808 239.246 478.671 239.664 478.495 240.151L476.307 247.364H473.805ZM501.512 239.733V203.147H516.364C520.253 203.147 523.66 203.931 526.578 205.499C529.529 207.032 531.822 209.175 533.457 211.927C535.089 214.68 535.906 217.851 535.906 221.44C535.906 225.029 535.089 228.2 533.457 230.952C531.822 233.705 529.529 235.866 526.578 237.434C523.66 238.967 520.253 239.733 516.364 239.733H501.512ZM505.369 236.388H516.156C519.387 236.388 522.181 235.761 524.546 234.507C526.943 233.217 528.8 231.458 530.122 229.228C531.441 226.963 532.102 224.367 532.102 221.44C532.102 218.478 531.441 215.882 530.122 213.652C528.8 211.422 526.943 209.68 524.546 208.426C522.181 207.136 519.387 206.492 516.156 206.492H505.369V236.388ZM555.403 239.995C552.556 239.995 550.055 239.402 547.899 238.218C545.746 236.998 544.062 235.343 542.844 233.252C541.629 231.127 541.02 228.705 541.02 225.987C541.02 223.269 541.593 220.865 542.74 218.774C543.922 216.684 545.521 215.046 547.534 213.861C549.586 212.642 551.879 212.032 554.413 212.032C556.986 212.032 559.259 212.624 561.239 213.809C563.255 214.959 564.835 216.596 565.982 218.722C567.128 220.813 567.701 223.234 567.701 225.987C567.701 226.161 567.685 226.353 567.649 226.562C567.649 226.736 567.649 226.928 567.649 227.137H543.834V224.367H565.669L564.21 225.464C564.21 223.478 563.777 221.719 562.907 220.186C562.073 218.618 560.927 217.398 559.468 216.527C558.008 215.656 556.325 215.22 554.413 215.22C552.537 215.22 550.853 215.656 549.358 216.527C547.866 217.398 546.7 218.618 545.866 220.186C545.033 221.754 544.616 223.548 544.616 225.569V226.144C544.616 228.235 545.068 230.081 545.971 231.684C546.909 233.252 548.195 234.489 549.827 235.395C551.494 236.266 553.39 236.702 555.507 236.702C557.175 236.702 558.722 236.406 560.145 235.813C561.604 235.221 562.855 234.315 563.897 233.095L565.982 235.5C564.767 236.963 563.239 238.078 561.396 238.845C559.591 239.611 557.591 239.995 555.403 239.995ZM581.758 239.733L569.616 212.293H573.473L584.625 237.747H582.801L594.109 212.293H597.757L585.563 239.733H581.758ZM613.827 239.995C610.977 239.995 608.476 239.402 606.323 238.218C604.167 236.998 602.483 235.343 601.268 233.252C600.05 231.127 599.444 228.705 599.444 225.987C599.444 223.269 600.017 220.865 601.164 218.774C602.343 216.684 603.942 215.046 605.958 213.861C608.007 212.642 610.299 212.032 612.837 212.032C615.406 212.032 617.683 212.624 619.663 213.809C621.676 214.959 623.259 216.596 624.406 218.722C625.552 220.813 626.125 223.234 626.125 225.987C626.125 226.161 626.106 226.353 626.073 226.562C626.073 226.736 626.073 226.928 626.073 227.137H602.258V224.367H624.093L622.634 225.464C622.634 223.478 622.197 221.719 621.331 220.186C620.497 218.618 619.351 217.398 617.892 216.527C616.432 215.656 614.745 215.22 612.837 215.22C610.961 215.22 609.274 215.656 607.782 216.527C606.287 217.398 605.124 218.618 604.29 220.186C603.457 221.754 603.04 223.548 603.04 225.569V226.144C603.04 228.235 603.489 230.081 604.395 231.684C605.333 233.252 606.616 234.489 608.251 235.395C609.918 236.266 611.811 236.702 613.931 236.702C615.599 236.702 617.142 236.406 618.569 235.813C620.028 235.221 621.279 234.315 622.321 233.095L624.406 235.5C623.187 236.963 621.66 238.078 619.82 238.845C618.012 239.611 616.016 239.995 613.827 239.995ZM633.655 239.733V200.951H637.355V239.733H633.655ZM658.803 239.995C656.161 239.995 653.784 239.402 651.663 238.218C649.579 236.998 647.928 235.343 646.713 233.252C645.498 231.127 644.889 228.705 644.889 225.987C644.889 223.234 645.498 220.813 646.713 218.722C647.928 216.631 649.579 214.994 651.663 213.809C653.748 212.624 656.129 212.032 658.803 212.032C661.512 212.032 663.91 212.624 665.994 213.809C668.114 214.994 669.763 216.631 670.945 218.722C672.16 220.813 672.769 223.234 672.769 225.987C672.769 228.705 672.16 231.127 670.945 233.252C669.763 235.343 668.114 236.998 665.994 238.218C663.874 239.402 661.477 239.995 658.803 239.995ZM658.803 236.702C660.783 236.702 662.538 236.266 664.066 235.395C665.594 234.489 666.792 233.235 667.662 231.632C668.564 229.994 669.017 228.113 669.017 225.987C669.017 223.827 668.564 221.945 667.662 220.342C666.792 218.739 665.594 217.503 664.066 216.631C662.538 215.726 660.799 215.272 658.855 215.272C656.91 215.272 655.171 215.726 653.644 216.631C652.116 217.503 650.898 218.739 649.996 220.342C649.094 221.945 648.641 223.827 648.641 225.987C648.641 228.113 649.094 229.994 649.996 231.632C650.898 233.235 652.116 234.489 653.644 235.395C655.171 236.266 656.891 236.702 658.803 236.702ZM694.444 239.995C692.083 239.995 689.946 239.455 688.034 238.374C686.122 237.259 684.595 235.674 683.448 233.618C682.338 231.527 681.781 228.984 681.781 225.987C681.781 222.991 682.338 220.464 683.448 218.408C684.559 216.318 686.07 214.733 687.982 213.652C689.894 212.572 692.047 212.032 694.444 212.032C697.05 212.032 699.378 212.624 701.427 213.809C703.511 214.959 705.143 216.596 706.326 218.722C707.508 220.813 708.097 223.234 708.097 225.987C708.097 228.775 707.508 231.214 706.326 233.304C705.143 235.395 703.511 237.033 701.427 238.218C699.378 239.402 697.05 239.995 694.444 239.995ZM680.322 249.873V212.293H683.865V220.551L683.5 226.039L684.022 231.58V249.873H680.322ZM694.183 236.702C696.128 236.702 697.867 236.266 699.395 235.395C700.922 234.489 702.14 233.235 703.042 231.632C703.945 229.994 704.397 228.113 704.397 225.987C704.397 223.862 703.945 221.998 703.042 220.395C702.14 218.792 700.922 217.537 699.395 216.631C697.867 215.726 696.128 215.272 694.183 215.272C692.239 215.272 690.483 215.726 688.92 216.631C687.393 217.537 686.174 218.792 685.272 220.395C684.403 221.998 683.97 223.862 683.97 225.987C683.97 228.113 684.403 229.994 685.272 231.632C686.174 233.235 687.393 234.489 688.92 235.395C690.483 236.266 692.239 236.702 694.183 236.702ZM712.638 247.364L714.93 237.695L715.347 239.942C714.546 239.942 713.869 239.681 713.315 239.158C712.794 238.636 712.533 237.956 712.533 237.12C712.533 236.284 712.794 235.604 713.315 235.082C713.869 234.559 714.53 234.298 715.295 234.298C716.093 234.298 716.735 234.576 717.223 235.134C717.745 235.691 718.005 236.353 718.005 237.12C718.005 237.399 717.986 237.678 717.953 237.956C717.917 238.235 717.849 238.548 717.745 238.897C717.64 239.246 717.5 239.664 717.328 240.151L715.139 247.364H712.638ZM740.342 239.733V203.147H755.193C759.082 203.147 762.489 203.931 765.407 205.499C768.358 207.032 770.651 209.175 772.286 211.927C773.918 214.68 774.735 217.851 774.735 221.44C774.735 225.029 773.918 228.2 772.286 230.952C770.651 233.705 768.358 235.866 765.407 237.434C762.489 238.967 759.082 239.733 755.193 239.733H740.342ZM744.198 236.388H754.985C758.216 236.388 761.01 235.761 763.375 234.507C765.772 233.217 767.629 231.458 768.951 229.228C770.27 226.963 770.931 224.367 770.931 221.44C770.931 218.478 770.27 215.882 768.951 213.652C767.629 211.422 765.772 209.68 763.375 208.426C761.01 207.136 758.216 206.492 754.985 206.492H744.198V236.388ZM782.611 239.733V212.293H786.311V239.733H782.611ZM784.487 206.23C783.725 206.23 783.08 205.969 782.559 205.446C782.038 204.924 781.777 204.296 781.777 203.565C781.777 202.833 782.038 202.223 782.559 201.735C783.08 201.213 783.725 200.951 784.487 200.951C785.252 200.951 785.894 201.195 786.415 201.683C786.936 202.171 787.197 202.781 787.197 203.512C787.197 204.279 786.936 204.924 786.415 205.446C785.93 205.969 785.288 206.23 784.487 206.23ZM803.954 239.995C801.697 239.995 799.56 239.681 797.544 239.054C795.531 238.392 793.948 237.573 792.802 236.597L794.47 233.67C795.584 234.507 797.007 235.238 798.743 235.866C800.482 236.458 802.306 236.754 804.215 236.754C806.82 236.754 808.696 236.353 809.843 235.552C810.989 234.716 811.562 233.618 811.562 232.259C811.562 231.249 811.233 230.465 810.572 229.907C809.947 229.315 809.113 228.879 808.071 228.6C807.029 228.287 805.866 228.026 804.579 227.816C803.296 227.607 802.01 227.363 800.723 227.085C799.472 226.806 798.326 226.405 797.284 225.883C796.241 225.325 795.391 224.576 794.73 223.635C794.105 222.694 793.792 221.44 793.792 219.872C793.792 218.374 794.209 217.032 795.043 215.847C795.877 214.663 797.095 213.739 798.691 213.077C800.326 212.38 802.306 212.032 804.632 212.032C806.403 212.032 808.175 212.276 809.947 212.764C811.719 213.217 813.178 213.826 814.324 214.593L812.709 217.572C811.494 216.736 810.191 216.144 808.8 215.795C807.413 215.412 806.022 215.22 804.632 215.22C802.166 215.22 800.342 215.656 799.16 216.527C798.013 217.363 797.44 218.443 797.44 219.767C797.44 220.813 797.753 221.632 798.378 222.224C799.039 222.816 799.889 223.287 800.932 223.635C802.01 223.949 803.172 224.21 804.423 224.419C805.71 224.628 806.977 224.89 808.227 225.203C809.514 225.482 810.676 225.883 811.719 226.405C812.797 226.893 813.647 227.607 814.272 228.548C814.933 229.454 815.262 230.656 815.262 232.155C815.262 233.758 814.813 235.151 813.907 236.336C813.041 237.486 811.755 238.392 810.051 239.054C808.384 239.681 806.351 239.995 803.954 239.995ZM836.176 239.995C833.811 239.995 831.674 239.455 829.766 238.374C827.854 237.259 826.326 235.674 825.18 233.618C824.066 231.527 823.512 228.984 823.512 225.987C823.512 222.991 824.066 220.464 825.18 218.408C826.291 216.318 827.802 214.733 829.714 213.652C831.622 212.572 833.778 212.032 836.176 212.032C838.781 212.032 841.107 212.624 843.158 213.809C845.243 214.959 846.875 216.596 848.057 218.722C849.236 220.813 849.829 223.234 849.829 225.987C849.829 228.775 849.236 231.214 848.057 233.304C846.875 235.395 845.243 237.033 843.158 238.218C841.107 239.402 838.781 239.995 836.176 239.995ZM822.053 249.873V212.293H825.597V220.551L825.232 226.039L825.753 231.58V249.873H822.053ZM835.915 236.702C837.859 236.702 839.595 236.266 841.126 235.395C842.654 234.489 843.869 233.235 844.774 231.632C845.676 229.994 846.129 228.113 846.129 225.987C846.129 223.862 845.676 221.998 844.774 220.395C843.869 218.792 842.654 217.537 841.126 216.631C839.595 215.726 837.859 215.272 835.915 215.272C833.967 215.272 832.215 215.726 830.652 216.631C829.121 217.537 827.906 218.792 827.004 220.395C826.134 221.998 825.701 223.862 825.701 225.987C825.701 228.113 826.134 229.994 827.004 231.632C827.906 233.235 829.121 234.489 830.652 235.395C832.215 236.266 833.967 236.702 835.915 236.702ZM857.372 239.733V200.951H861.072V239.733H857.372ZM888.509 239.733V233.67L888.353 232.677V222.538C888.353 220.203 887.695 218.408 886.372 217.154C885.089 215.9 883.161 215.272 880.588 215.272C878.816 215.272 877.132 215.569 875.533 216.161C873.937 216.753 872.582 217.537 871.468 218.513L869.801 215.743C871.192 214.558 872.859 213.652 874.803 213.025C876.751 212.363 878.8 212.032 880.953 212.032C884.496 212.032 887.226 212.92 889.134 214.698C891.082 216.44 892.053 219.105 892.053 222.694V239.733H888.509ZM879.077 239.995C877.028 239.995 875.24 239.664 873.709 239.002C872.217 238.305 871.071 237.364 870.27 236.179C869.472 234.96 869.071 233.566 869.071 231.998C869.071 230.569 869.403 229.28 870.061 228.13C870.758 226.945 871.869 226.004 873.396 225.308C874.96 224.576 877.044 224.21 879.65 224.21H889.082V226.98H879.754C877.116 226.98 875.272 227.451 874.23 228.391C873.224 229.332 872.719 230.499 872.719 231.893C872.719 233.461 873.328 234.716 874.543 235.656C875.761 236.597 877.461 237.068 879.65 237.068C881.734 237.068 883.526 236.597 885.017 235.656C886.548 234.681 887.659 233.287 888.353 231.475L889.186 234.036C888.493 235.848 887.278 237.294 885.539 238.374C883.838 239.455 881.682 239.995 879.077 239.995ZM901.804 250.134C900.517 250.134 899.283 249.925 898.104 249.507C896.958 249.089 895.967 248.462 895.134 247.626L896.853 244.855C897.547 245.518 898.293 246.023 899.094 246.371C899.928 246.754 900.846 246.946 901.856 246.946C903.071 246.946 904.113 246.598 904.983 245.901C905.885 245.239 906.735 244.054 907.536 242.347L909.308 238.322L909.725 237.747L920.981 212.293H924.629L910.924 243.026C910.158 244.803 909.308 246.214 908.37 247.26C907.465 248.305 906.475 249.037 905.4 249.455C904.322 249.908 903.123 250.134 901.804 250.134ZM909.1 240.517L896.489 212.293H900.345L911.497 237.486L909.1 240.517Z" fill="#040303"/>
</g>
</g>
<defs>
<clipPath id="clip0_677_2168">
<rect width="1087" height="297" fill="white"/>
</clipPath>
<clipPath id="clip1_677_2168">
<rect width="1280" height="392" fill="white" transform="translate(-97 -51)"/>
</clipPath>
</defs>
</svg>
