<svg width="392" height="392" viewBox="0 0 392 392" fill="none" xmlns="http://www.w3.org/2000/svg">
<g clip-path="url(#clip0_643_2173)">
<path d="M287.463 317.818C287.463 297.735 271.49 281.454 251.787 281.454H163.385C150.597 281.454 140.23 270.887 140.23 257.853V245.091H238.386C238.386 225.008 222.412 208.727 202.71 208.727H104.537V281.454C104.537 301.537 120.51 317.818 140.213 317.818H287.463Z" fill="#E6AF2E"/>
<path d="M287.463 74.1818C287.463 94.2647 271.49 110.546 251.787 110.546H163.385C150.597 110.546 140.23 121.112 140.23 134.147V146.909H238.385C238.385 166.993 222.412 183.273 202.708 183.273H104.537V110.546C104.537 90.4625 120.509 74.1818 140.213 74.1818H287.463Z" fill="#3D348B"/>
</g>
<defs>
<clipPath id="clip0_643_2173">
<rect width="300" height="360" fill="white" transform="translate(46 16)"/>
</clipPath>
</defs>
</svg>
